<?xml version="1.0" encoding="utf-8"?>
<!-- Generator: Adobe Illustrator 16.0.0, SVG Export Plug-In . SVG Version: 6.00 Build 0)  -->
<!DOCTYPE svg PUBLIC "-//W3C//DTD SVG 1.1//EN" "http://www.w3.org/Graphics/SVG/1.1/DTD/svg11.dtd">
<svg version="1.1" id="Layer_1" xmlns="http://www.w3.org/2000/svg" xmlns:xlink="http://www.w3.org/1999/xlink" x="0px" y="0px"
	 width="150px" height="150px" viewBox="0 0 150 150" enable-background="new 0 0 150 150" xml:space="preserve">
<image display="none" overflow="visible" width="143" height="150" xlink:href="8C396598.jpg"  transform="matrix(1 0 0 1 4 1)">
</image>
<path fill="#FF503F" d="M67.026,5.823V1.064h7.57v4.758c0,0,9.732-0.649,15.788,4.109l-3.893,11.679c0,0-11.679-10.166-19.465-4.542
	c-7.786,5.623,8.651,7.574,14.058,10.38c0,0,7.569,2.812,9.3,9.733c0,0,3.895,8.867-3.893,15.355c0,0-5.407,3.681-10.813,3.676v7.57
	h-8.435v-7.353c0,0-12.977,0.648-16.004-3.245V40.21c0,0,13.625,10.165,24.439,4.542c0,0,3.244-2.595-1.514-5.407
	c-6.2-3.664-24.872-4.109-23.005-21.307C51.158,18.039,52.536,7.985,67.026,5.823z"/>
<polygon fill="#FF503F" points="2.577,98.817 8.956,106.927 41.073,73.838 71.244,104.007 134.828,39.773 148.778,53.724 
	148.778,18.039 113.418,18.039 127.691,31.664 70.919,88.436 41.073,59.239 "/>
<path fill="#FF9085" d="M103.036,77.405"/>
<path fill="#FF503F" d="M2.577,106.927l6.272,6.163l13.193-12.975c0,0-0.08,42.642,0.063,45.015
	c0.141,2.349-0.844,3.152-2.361,3.809c-1.403,0.608-13.545,0.162-13.545,0.162s-4.382,0.806-4.136-6.162
	C2.338,135.153,2.577,106.927,2.577,106.927z"/>
<path fill="#FF503F" d="M27.691,95.33l14.112-15.411l5.602,5.759c0,0-0.156,57.661-0.013,60.035c0.141,2.35-0.843,3.15-2.36,3.808
	c-1.403,0.609-13.545,0.163-13.545,0.163s-4.382,0.807-4.137-6.163C27.626,135.737,27.691,95.33,27.691,95.33z"/>
<path fill="#FF503F" d="M52.411,91.904l11.156,10.591l8.903,9.308c0,0-0.151,31.735-0.008,34.11c0.142,2.349-0.842,3.15-2.361,3.809
	c-1.403,0.608-13.544,0.163-13.544,0.163s-4.383,0.806-4.136-6.164C52.695,135.937,52.411,91.904,52.411,91.904z"/>
<path fill="#FF503F" d="M77.617,105.531L88.37,94.499l9.237-8.808c0,0-0.156,57.847-0.016,60.222c0.143,2.349-0.841,3.15-2.36,3.809
	c-1.402,0.608-13.544,0.163-13.544,0.163s-4.382,0.806-4.136-6.164C77.826,135.937,77.617,105.531,77.617,105.531z"/>
<path fill="#FF503F" d="M103.703,79.357l7.356-7.642l12.04-13.558c0,0-0.154,85.381-0.013,87.756
	c0.142,2.349-0.843,3.15-2.359,3.809c-1.404,0.608-13.545,0.163-13.545,0.163s-4.384,0.806-4.137-6.164
	C103.32,135.937,103.703,79.357,103.703,79.357z"/>
<path fill="#FF503F" d="M128.715,52.32l5.572-5.407l14.491,13.193c0,0-0.155,83.432-0.014,85.807
	c0.142,2.349-0.842,3.15-2.358,3.809c-1.405,0.608-13.546,0.163-13.546,0.163s-4.383,0.806-4.136-6.164
	C128.998,135.937,128.715,52.32,128.715,52.32z"/>
</svg>
